<?xml version="1.0" encoding="UTF-8"?>
<svg id="Capa_3" data-name="Capa 3" xmlns="http://www.w3.org/2000/svg" viewBox="0 0 2048 702.55">
  <defs>
    <style>
      .cls-1 {
        fill: #f2f3f4;
      }

      .cls-2 {
        fill: #742abf;
      }

      .cls-3 {
        fill: #2d4cba;
      }
    </style>
  </defs>
  <path class="cls-1" d="M796.28,212.66c62.66,0,115.19,17.41,157.6,52.22,19.3,15.83,28.96,31.49,28.96,46.99,0,10.76-4.59,20.1-13.77,28.01-8.86,7.91-18.68,11.87-29.43,11.87-11.71,0-23.73-6.96-36.08-20.89-26.58-30.06-62.66-45.1-108.23-45.1-49.69,0-89.88,19.78-120.57,59.34-24.68,31.65-37.03,68.83-37.03,111.55,0,54.75,20.41,99.69,61.24,134.81,29.43,25.32,62.19,37.98,98.26,37.98,50,0,92.09-19.62,126.27-58.86,7.91-8.86,16.93-13.29,27.06-13.29,13.29,0,24.68,5.7,34.18,17.09,6.33,7.6,9.49,15.98,9.49,25.16,0,13.29-7.28,26.9-21.84,40.82-43.36,41.46-101.11,62.19-173.26,62.19-86.71,0-153.33-32.91-199.85-98.74-30.07-42.72-45.1-91.77-45.1-147.16,0-75,27.53-136.87,82.6-185.61,44.3-38.93,97.47-58.39,159.5-58.39Z"/>
  <path class="cls-1" d="M1160.58,298.11c17.72-22.15,38.29-40.35,61.71-54.59,33.86-20.57,68.99-30.86,105.38-30.86,57.28,0,100.79,21.84,130.54,65.51,21.2,31.33,31.8,70.73,31.8,118.2v260.61c0,10.44-3.64,19.15-10.92,26.11-7.91,7.28-18.04,10.92-30.38,10.92-15.83,0-27.7-5.7-35.6-17.09-3.8-5.7-5.7-12.34-5.7-19.94v-246.84c0-82.91-30.07-124.37-90.19-124.37-36.71,0-71.84,15.83-105.38,47.47-34.18,32.6-51.27,67.25-51.27,103.96v219.78c0,10.44-3.64,19.15-10.92,26.11-7.6,7.28-17.73,10.92-30.38,10.92-16.14,0-28.01-5.7-35.6-17.09-3.8-5.38-5.7-12.02-5.7-19.94V35.6c0-8.86,2.85-16.29,8.54-22.31,7.91-8.86,18.99-13.29,33.23-13.29,16.14,0,28.01,5.7,35.6,17.09,3.48,5.38,5.22,11.56,5.22,18.51v262.51Z"/>
  <g>
    <g>
      <rect class="cls-1" x="1629" y="476.57" width="215.7" height="93.4" rx="27.45" ry="27.45"/>
      <rect class="cls-3" x="1644.85" y="493.8" width="184.85" height="58.95" rx="15.2" ry="15.2"/>
    </g>
    <g>
      <rect class="cls-1" x="1775.24" y="345.24" width="214.65" height="93.4" rx="27.79" ry="27.79"/>
      <rect class="cls-2" x="1790.24" y="362.47" width="191.8" height="58.95" rx="15.48" ry="15.48"/>
    </g>
    <path class="cls-1" d="M1811.6,212.66c68.36,0,124.53,22.47,168.52,67.41,45.25,46.52,67.88,105.38,67.88,176.59,0,43.67-8.71,83.55-26.11,119.62-22.79,46.21-56.49,80.22-101.11,102.06-32.92,16.14-69.63,24.21-110.13,24.21-76.27,0-136.71-26.89-181.33-80.7-37.03-44.62-55.54-99.69-55.54-165.19,0-49.68,11.7-94.3,35.13-133.86,31.33-52.53,76.58-86.55,135.76-102.06,21.2-5.38,43.51-8.07,66.93-8.07ZM1810.18,285.77c-42.09,0-77.06,14.4-104.91,43.2-31.33,31.97-46.99,74.69-46.99,128.17,0,36.08,7.75,68.2,23.26,96.36,27.84,50.64,71.04,75.95,129.59,75.95,46.2,0,83.7-17.09,112.5-51.27,26.58-31.96,39.87-72.31,39.87-121.05,0-53.17-15.66-95.89-46.99-128.17-27.85-28.79-63.3-43.2-106.33-43.2Z"/>
  </g>
  <path class="cls-1" d="M447.64,576.76c7.59,7.91,11.39,17.25,11.39,28,0,13.93-8.86,28.01-26.58,42.25-46.84,37.03-108.71,55.54-185.61,55.54-55.06,0-102.85-13.76-143.36-41.3-39.56-26.58-68.2-62.66-85.92-108.23C5.85,522.96,0,490.68,0,456.18c0-63.29,18.99-117.25,56.96-161.87,46.84-54.42,108.86-81.64,186.08-81.64,63.3,0,117.41,20.73,162.35,62.18,43.35,39.88,65.03,86.87,65.03,140.99,0,37.66-16.45,56.48-49.36,56.48h-235.13c-6.22,0-12.02-1.77-16.93-4.84-9.07-5.65-15.11-15.72-15.11-27.2s6.04-21.55,15.11-27.2c4.91-3.07,10.71-4.84,16.93-4.84h180.54c10.12,0,15.19-4.27,15.19-12.82,0-12.65-5.39-28.16-16.14-46.52-25.64-42.72-66.78-64.08-123.42-64.08-47.16,0-85.77,15.51-115.83,46.52-20.58,20.89-35.25,47.03-42.16,76.9-5.19,22.41-4.89,41.07-3.79,64.08,1.68,35.11,15.57,65.2,32.66,90.2,31.01,44.62,75.79,66.93,134.34,66.93,54.11,0,101.26-17.09,141.46-51.27,10.44-8.85,20.88-13.29,31.33-13.29s19.61,3.96,27.53,11.87Z"/>
</svg>