<?xml version="1.0" encoding="UTF-8"?>
<svg id="Capa_3" data-name="Capa 3" xmlns="http://www.w3.org/2000/svg" viewBox="0 0 835.67 863.28">
  <defs>
    <style>
      .cls-1 {
        fill: #020725;
      }

      .cls-2 {
        fill: #742abf;
      }

      .cls-3 {
        fill: #2d4cba;
      }
    </style>
  </defs>
  <g>
    <rect class="cls-1" x="97.31" y="465.06" width="380.11" height="164.59" rx="48.37" ry="48.37"/>
    <rect class="cls-3" x="125.25" y="495.41" width="325.74" height="103.88" rx="26.78" ry="26.78"/>
  </g>
  <g>
    <rect class="cls-1" x="355.02" y="233.63" width="378.25" height="164.59" rx="48.97" ry="48.97"/>
    <rect class="cls-2" x="381.45" y="263.99" width="337.98" height="103.88" rx="27.28" ry="27.28"/>
  </g>
  <path class="cls-1" d="M419.09,0C539.55,0,638.53,39.6,716.05,118.78c79.74,81.98,119.62,185.7,119.62,311.18,0,76.96-15.34,147.23-46.01,210.8-40.15,81.43-99.54,141.37-178.18,179.85-58.01,28.44-122.69,42.66-194.07,42.66-134.4,0-240.91-47.39-319.55-142.21C32.62,642.44,0,545.4,0,429.96c0-87.55,20.63-166.18,61.9-235.9C117.11,101.5,196.85,41.55,301.14,14.22,338.5,4.75,377.81,0,419.09,0ZM416.58,128.82c-74.18,0-135.8,25.38-184.87,76.12-55.21,56.33-82.81,131.62-82.81,225.86,0,63.57,13.66,120.18,40.99,169.81,49.07,89.23,125.19,133.84,228.37,133.84,81.41,0,147.5-30.11,198.25-90.34,46.84-56.32,70.27-127.42,70.27-213.31,0-93.69-27.6-168.97-82.81-225.86-49.08-50.74-111.54-76.12-187.38-76.12Z"/>
</svg>