<?xml version="1.0" encoding="UTF-8"?>
<svg id="Capa_3" data-name="Capa 3" xmlns="http://www.w3.org/2000/svg" viewBox="0 0 835.67 863.28">
  <defs>
    <style>
      .cls-1 {
        fill: #f2f3f4;
      }
    </style>
  </defs>
  <path class="cls-1" d="M792.18,641.6c13.38,13.94,20.07,30.4,20.07,49.34,0,24.55-15.61,49.36-46.84,74.45-82.54,65.26-191.57,97.87-327.08,97.87-97.03,0-181.24-24.25-252.63-72.78-69.71-46.84-120.18-110.42-151.41-190.72-20.64-52.97-30.94-109.86-30.94-170.65,0-111.53,33.46-206.62,100.38-285.25C186.26,47.97,295.56,0,431.63,0c111.55,0,206.9,36.53,286.09,109.57,76.39,70.28,114.6,153.08,114.6,248.45,0,66.37-28.99,99.53-86.98,99.53h-414.35c-10.96,0-21.18-3.12-29.83-8.53-15.98-9.96-26.63-27.7-26.63-47.93s10.64-37.98,26.63-47.93c8.65-5.41,18.87-8.53,29.83-8.53h318.15c17.83,0,26.77-7.52,26.77-22.59,0-22.29-9.5-49.62-28.44-81.98-45.18-75.28-117.68-112.92-217.49-112.92-83.11,0-151.14,27.33-204.12,81.98-36.27,36.81-62.11,82.88-74.29,135.51-9.14,39.49-8.62,72.38-6.68,112.92,2.96,61.88,27.44,114.9,57.55,158.95,54.65,78.63,133.56,117.94,236.74,117.94,95.35,0,178.44-30.12,249.28-90.35,18.4-15.6,36.79-23.42,55.21-23.42s34.56,6.98,48.51,20.92Z"/>
</svg>